# xmcd
#
# Track frame offsets: 
#        150
#        19462
#        42455
#        64575
#        86720
#        105870
#        130745
#        154365
#        175520
#        196629
#
# Disc length: 2878 seconds
#
# Revision: 2
# Processed by: cddbd v1.5.2PL0 Copyright (c) Steve Scherf et al.
# Submitted via: ExactAudioCopy v1.0b3
#
DISCID=780b3c0a
DTITLE=Maelo Ruiz - Maelo Ruiz
DYEAR=1999
DGENRE=Salsa
TTITLE0=a media luz
TTITLE1=rosas secas
TTITLE2=se me ha hecho dificil
TTITLE3=maldito
TTITLE4=preso de ti
TTITLE5=estoy muerto en vida
TTITLE6=el amor de tu vida
TTITLE7=se enamoro de mi
TTITLE8=oh mujer
TTITLE9=esa mujer me gusta
EXTD=YEAR: 1999
EXTT0=
EXTT1=
EXTT2=
EXTT3=
EXTT4=
EXTT5=
EXTT6=
EXTT7=
EXTT8=
EXTT9=
PLAYORDER=
